<mxfile host="Electron" modified="2024-01-12T08:47:57.373Z" agent="Mozilla/5.0 (Windows NT 10.0; Win64; x64) AppleWebKit/537.36 (KHTML, like Gecko) draw.io/22.1.2 Chrome/114.0.5735.289 Electron/25.9.4 Safari/537.36" etag="CHaW-qDIJ8yKQHb9pjRP" version="22.1.2" type="device">
  <diagram name="第 1 页" id="XL17roRLhjN3P3sSkAsR">
    <mxGraphModel dx="1600" dy="801" grid="1" gridSize="10" guides="1" tooltips="1" connect="1" arrows="1" fold="1" page="1" pageScale="1" pageWidth="827" pageHeight="1169" math="0" shadow="0">
      <root>
        <mxCell id="0" />
        <mxCell id="1" parent="0" />
        <mxCell id="X3ztfTKg5QUv4TuCS2b2-1" value="" style="rounded=1;whiteSpace=wrap;html=1;" vertex="1" parent="1">
          <mxGeometry x="159" y="200" width="510" height="60" as="geometry" />
        </mxCell>
        <mxCell id="X3ztfTKg5QUv4TuCS2b2-4" value="" style="line;strokeWidth=2;direction=south;html=1;" vertex="1" parent="1">
          <mxGeometry x="270" y="200" width="10" height="60" as="geometry" />
        </mxCell>
        <mxCell id="X3ztfTKg5QUv4TuCS2b2-5" value="" style="line;strokeWidth=2;direction=south;html=1;" vertex="1" parent="1">
          <mxGeometry x="374" y="200" width="20" height="60" as="geometry" />
        </mxCell>
        <mxCell id="X3ztfTKg5QUv4TuCS2b2-7" value="" style="line;strokeWidth=2;direction=south;html=1;" vertex="1" parent="1">
          <mxGeometry x="480" y="200" width="90" height="60" as="geometry" />
        </mxCell>
        <mxCell id="X3ztfTKg5QUv4TuCS2b2-19" value="" style="rounded=1;whiteSpace=wrap;html=1;direction=south;" vertex="1" parent="1">
          <mxGeometry x="170" y="300" width="60" height="270" as="geometry" />
        </mxCell>
        <mxCell id="X3ztfTKg5QUv4TuCS2b2-20" value="" style="line;strokeWidth=2;html=1;" vertex="1" parent="1">
          <mxGeometry x="170" y="330" width="60" height="10" as="geometry" />
        </mxCell>
        <mxCell id="X3ztfTKg5QUv4TuCS2b2-21" value="" style="line;strokeWidth=2;html=1;" vertex="1" parent="1">
          <mxGeometry x="170" y="370" width="60" height="10" as="geometry" />
        </mxCell>
        <mxCell id="X3ztfTKg5QUv4TuCS2b2-22" value="" style="line;strokeWidth=2;html=1;" vertex="1" parent="1">
          <mxGeometry x="170" y="410" width="60" height="10" as="geometry" />
        </mxCell>
        <mxCell id="X3ztfTKg5QUv4TuCS2b2-23" value="" style="line;strokeWidth=2;html=1;" vertex="1" parent="1">
          <mxGeometry x="170" y="450" width="60" height="10" as="geometry" />
        </mxCell>
        <mxCell id="X3ztfTKg5QUv4TuCS2b2-24" value="" style="line;strokeWidth=2;html=1;" vertex="1" parent="1">
          <mxGeometry x="170" y="520" width="60" height="10" as="geometry" />
        </mxCell>
        <mxCell id="X3ztfTKg5QUv4TuCS2b2-25" value="" style="line;strokeWidth=2;html=1;" vertex="1" parent="1">
          <mxGeometry x="170" y="490" width="60" height="10" as="geometry" />
        </mxCell>
        <mxCell id="X3ztfTKg5QUv4TuCS2b2-26" value="" style="rounded=1;whiteSpace=wrap;html=1;direction=south;" vertex="1" parent="1">
          <mxGeometry x="300" y="300" width="60" height="270" as="geometry" />
        </mxCell>
        <mxCell id="X3ztfTKg5QUv4TuCS2b2-27" value="" style="line;strokeWidth=2;html=1;" vertex="1" parent="1">
          <mxGeometry x="300" y="340" width="60" height="10" as="geometry" />
        </mxCell>
        <mxCell id="X3ztfTKg5QUv4TuCS2b2-28" value="" style="line;strokeWidth=2;html=1;" vertex="1" parent="1">
          <mxGeometry x="300" y="380" width="60" height="10" as="geometry" />
        </mxCell>
        <mxCell id="X3ztfTKg5QUv4TuCS2b2-29" value="" style="line;strokeWidth=2;html=1;" vertex="1" parent="1">
          <mxGeometry x="300" y="420" width="60" height="10" as="geometry" />
        </mxCell>
        <mxCell id="X3ztfTKg5QUv4TuCS2b2-30" value="" style="line;strokeWidth=2;html=1;" vertex="1" parent="1">
          <mxGeometry x="300" y="460" width="60" height="10" as="geometry" />
        </mxCell>
        <mxCell id="X3ztfTKg5QUv4TuCS2b2-31" value="" style="line;strokeWidth=2;html=1;" vertex="1" parent="1">
          <mxGeometry x="300" y="530" width="60" height="10" as="geometry" />
        </mxCell>
        <mxCell id="X3ztfTKg5QUv4TuCS2b2-32" value="" style="line;strokeWidth=2;html=1;" vertex="1" parent="1">
          <mxGeometry x="300" y="500" width="60" height="10" as="geometry" />
        </mxCell>
        <mxCell id="X3ztfTKg5QUv4TuCS2b2-40" value="" style="rounded=1;whiteSpace=wrap;html=1;direction=south;" vertex="1" parent="1">
          <mxGeometry x="430" y="300" width="60" height="270" as="geometry" />
        </mxCell>
        <mxCell id="X3ztfTKg5QUv4TuCS2b2-41" value="" style="line;strokeWidth=2;html=1;" vertex="1" parent="1">
          <mxGeometry x="430" y="340" width="60" height="10" as="geometry" />
        </mxCell>
        <mxCell id="X3ztfTKg5QUv4TuCS2b2-42" value="" style="line;strokeWidth=2;html=1;" vertex="1" parent="1">
          <mxGeometry x="430" y="380" width="60" height="10" as="geometry" />
        </mxCell>
        <mxCell id="X3ztfTKg5QUv4TuCS2b2-43" value="" style="line;strokeWidth=2;html=1;" vertex="1" parent="1">
          <mxGeometry x="430" y="420" width="60" height="10" as="geometry" />
        </mxCell>
        <mxCell id="X3ztfTKg5QUv4TuCS2b2-44" value="" style="line;strokeWidth=2;html=1;" vertex="1" parent="1">
          <mxGeometry x="430" y="460" width="60" height="10" as="geometry" />
        </mxCell>
        <mxCell id="X3ztfTKg5QUv4TuCS2b2-45" value="" style="line;strokeWidth=2;html=1;" vertex="1" parent="1">
          <mxGeometry x="430" y="530" width="60" height="10" as="geometry" />
        </mxCell>
        <mxCell id="X3ztfTKg5QUv4TuCS2b2-46" value="" style="line;strokeWidth=2;html=1;" vertex="1" parent="1">
          <mxGeometry x="430" y="500" width="60" height="10" as="geometry" />
        </mxCell>
        <mxCell id="X3ztfTKg5QUv4TuCS2b2-47" value="" style="rounded=1;whiteSpace=wrap;html=1;direction=south;" vertex="1" parent="1">
          <mxGeometry x="570" y="300" width="60" height="270" as="geometry" />
        </mxCell>
        <mxCell id="X3ztfTKg5QUv4TuCS2b2-48" value="" style="line;strokeWidth=2;html=1;" vertex="1" parent="1">
          <mxGeometry x="570" y="340" width="60" height="10" as="geometry" />
        </mxCell>
        <mxCell id="X3ztfTKg5QUv4TuCS2b2-49" value="" style="line;strokeWidth=2;html=1;" vertex="1" parent="1">
          <mxGeometry x="570" y="380" width="60" height="10" as="geometry" />
        </mxCell>
        <mxCell id="X3ztfTKg5QUv4TuCS2b2-50" value="" style="line;strokeWidth=2;html=1;" vertex="1" parent="1">
          <mxGeometry x="570" y="420" width="60" height="10" as="geometry" />
        </mxCell>
        <mxCell id="X3ztfTKg5QUv4TuCS2b2-51" value="" style="line;strokeWidth=2;html=1;" vertex="1" parent="1">
          <mxGeometry x="570" y="460" width="60" height="10" as="geometry" />
        </mxCell>
        <mxCell id="X3ztfTKg5QUv4TuCS2b2-52" value="" style="line;strokeWidth=2;html=1;" vertex="1" parent="1">
          <mxGeometry x="570" y="530" width="60" height="10" as="geometry" />
        </mxCell>
        <mxCell id="X3ztfTKg5QUv4TuCS2b2-53" value="" style="line;strokeWidth=2;html=1;" vertex="1" parent="1">
          <mxGeometry x="570" y="500" width="60" height="10" as="geometry" />
        </mxCell>
        <mxCell id="X3ztfTKg5QUv4TuCS2b2-54" value="&lt;b&gt;&lt;font style=&quot;font-size: 18px;&quot;&gt;T**&lt;/font&gt;&lt;/b&gt;" style="text;html=1;strokeColor=none;fillColor=none;align=center;verticalAlign=middle;whiteSpace=wrap;rounded=0;" vertex="1" parent="1">
          <mxGeometry x="110" y="170" width="60" height="30" as="geometry" />
        </mxCell>
        <mxCell id="X3ztfTKg5QUv4TuCS2b2-59" value="" style="edgeStyle=orthogonalEdgeStyle;rounded=0;orthogonalLoop=1;jettySize=auto;html=1;entryX=0;entryY=0.5;entryDx=0;entryDy=0;" edge="1" parent="1" source="X3ztfTKg5QUv4TuCS2b2-55" target="X3ztfTKg5QUv4TuCS2b2-19">
          <mxGeometry relative="1" as="geometry">
            <mxPoint x="200" y="290" as="targetPoint" />
          </mxGeometry>
        </mxCell>
        <mxCell id="X3ztfTKg5QUv4TuCS2b2-55" value="&lt;font style=&quot;font-size: 18px;&quot;&gt;&lt;b&gt;T*&lt;/b&gt;&lt;/font&gt;" style="text;html=1;strokeColor=none;fillColor=none;align=center;verticalAlign=middle;whiteSpace=wrap;rounded=0;" vertex="1" parent="1">
          <mxGeometry x="170" y="215" width="60" height="30" as="geometry" />
        </mxCell>
        <mxCell id="X3ztfTKg5QUv4TuCS2b2-60" value="" style="edgeStyle=orthogonalEdgeStyle;rounded=0;orthogonalLoop=1;jettySize=auto;html=1;" edge="1" parent="1" source="X3ztfTKg5QUv4TuCS2b2-56">
          <mxGeometry relative="1" as="geometry">
            <mxPoint x="330" y="300" as="targetPoint" />
          </mxGeometry>
        </mxCell>
        <mxCell id="X3ztfTKg5QUv4TuCS2b2-56" value="&lt;font style=&quot;font-size: 18px;&quot;&gt;&lt;b&gt;T*&lt;/b&gt;&lt;/font&gt;" style="text;html=1;strokeColor=none;fillColor=none;align=center;verticalAlign=middle;whiteSpace=wrap;rounded=0;" vertex="1" parent="1">
          <mxGeometry x="300" y="215" width="60" height="30" as="geometry" />
        </mxCell>
        <mxCell id="X3ztfTKg5QUv4TuCS2b2-61" value="" style="edgeStyle=orthogonalEdgeStyle;rounded=0;orthogonalLoop=1;jettySize=auto;html=1;" edge="1" parent="1" source="X3ztfTKg5QUv4TuCS2b2-57">
          <mxGeometry relative="1" as="geometry">
            <mxPoint x="460" y="300" as="targetPoint" />
          </mxGeometry>
        </mxCell>
        <mxCell id="X3ztfTKg5QUv4TuCS2b2-57" value="&lt;font style=&quot;font-size: 18px;&quot;&gt;&lt;b&gt;T*&lt;/b&gt;&lt;/font&gt;" style="text;html=1;strokeColor=none;fillColor=none;align=center;verticalAlign=middle;whiteSpace=wrap;rounded=0;" vertex="1" parent="1">
          <mxGeometry x="430" y="215" width="60" height="30" as="geometry" />
        </mxCell>
        <mxCell id="X3ztfTKg5QUv4TuCS2b2-62" value="" style="edgeStyle=orthogonalEdgeStyle;rounded=0;orthogonalLoop=1;jettySize=auto;html=1;entryX=0;entryY=0.5;entryDx=0;entryDy=0;" edge="1" parent="1" source="X3ztfTKg5QUv4TuCS2b2-58" target="X3ztfTKg5QUv4TuCS2b2-47">
          <mxGeometry relative="1" as="geometry">
            <mxPoint x="600" y="290" as="targetPoint" />
          </mxGeometry>
        </mxCell>
        <mxCell id="X3ztfTKg5QUv4TuCS2b2-58" value="&lt;font style=&quot;font-size: 18px;&quot;&gt;&lt;b&gt;T*&lt;/b&gt;&lt;/font&gt;" style="text;html=1;strokeColor=none;fillColor=none;align=center;verticalAlign=middle;whiteSpace=wrap;rounded=0;" vertex="1" parent="1">
          <mxGeometry x="570" y="215" width="60" height="30" as="geometry" />
        </mxCell>
        <mxCell id="X3ztfTKg5QUv4TuCS2b2-63" value="&lt;b&gt;&lt;font style=&quot;font-size: 14px;&quot;&gt;begin_&lt;/font&gt;&lt;/b&gt;" style="text;html=1;strokeColor=none;fillColor=none;align=center;verticalAlign=middle;whiteSpace=wrap;rounded=0;" vertex="1" parent="1">
          <mxGeometry x="290" y="140" width="60" height="30" as="geometry" />
        </mxCell>
        <mxCell id="X3ztfTKg5QUv4TuCS2b2-64" value="&lt;font style=&quot;font-size: 14px;&quot;&gt;&lt;b&gt;end_&lt;/b&gt;&lt;/font&gt;" style="text;html=1;strokeColor=none;fillColor=none;align=center;verticalAlign=middle;whiteSpace=wrap;rounded=0;" vertex="1" parent="1">
          <mxGeometry x="420" y="140" width="60" height="30" as="geometry" />
        </mxCell>
      </root>
    </mxGraphModel>
  </diagram>
</mxfile>
